<svg width="58" height="58" fill="none" xmlns="http://www.w3.org/2000/svg"><circle cx="29" cy="29" r="28" stroke="#fff"/><path d="m29.21 11.63 14.903 8.604v17.21l-14.904 8.604-14.903-8.605V20.234l14.903-8.605Z" stroke="#fff" stroke-width="2.259" stroke-linecap="round" stroke-linejoin="round"/><path d="M21.77 22.964a4.518 4.518 0 0 1 4.17-2.121l2.345.173-10.41 17.326-4.12-2.475 8.015-12.903ZM29.917 21.195l5.09-.137L22.56 41.774l-3.894-2.34 11.25-18.239ZM35.716 23.488l-2.258 3.952 7.34 11.294 3.389-2.823-8.47-12.423ZM32.328 29.134l-2.258 3.953 5.646 9.035 3.388-2.259-6.776-10.729Z" fill="#fff"/></svg>