<svg width="58" height="58" fill="none" xmlns="http://www.w3.org/2000/svg"><circle cx="29" cy="29" r="28" stroke="#fff"/><path d="M20.839 36.442c-1.667 0-3.033-.392-4.098-1.177-1.05-.798-1.576-1.933-1.576-3.404 0-.309.035-.687.105-1.135.182-1.009.441-2.22.777-3.636.953-3.853 3.412-5.78 7.377-5.78 1.079 0 2.045.183 2.9.547.855.35 1.527.883 2.017 1.598.49.7.736 1.54.736 2.521 0 .294-.035.666-.105 1.114a47.579 47.579 0 0 1-.757 3.636c-.49 1.92-1.338 3.355-2.543 4.308-1.204.939-2.816 1.408-4.833 1.408Zm.294-3.026c.785 0 1.45-.231 1.997-.694.56-.462.96-1.17 1.198-2.122.322-1.317.567-2.466.735-3.447.056-.294.084-.595.084-.904 0-1.274-.665-1.912-1.996-1.912-.785 0-1.457.231-2.018.694-.546.462-.938 1.17-1.177 2.122A45.658 45.658 0 0 0 19.2 30.6c-.056.28-.084.574-.084.882 0 1.29.672 1.934 2.017 1.934ZM30.042 36.232a.445.445 0 0 1-.357-.147.502.502 0 0 1-.063-.379l2.9-13.66a.601.601 0 0 1 .23-.378.64.64 0 0 1 .4-.147h5.59c1.556 0 2.802.322 3.741.967.953.644 1.43 1.576 1.43 2.795 0 .35-.043.714-.127 1.092-.35 1.612-1.058 2.803-2.123 3.573-1.05.77-2.493 1.156-4.329 1.156h-2.837l-.966 4.602a.602.602 0 0 1-.232.379.64.64 0 0 1-.399.147h-2.858Zm7.44-8.028c.588 0 1.1-.161 1.534-.483.448-.323.742-.785.882-1.387.042-.239.063-.449.063-.63 0-.407-.119-.716-.357-.926-.238-.224-.645-.336-1.219-.336h-2.522l-.798 3.762h2.416Z" fill="#fff"/></svg>